<?xml version="1.0" encoding="UTF-8" standalone="no"?>
<!-- Created with Inkscape (http://www.inkscape.org/) -->

<svg
   width="187.5pt"
   height="187.5pt"
   viewBox="0 0 250 250"
   version="1.1"
   id="SVGRoot"
   sodipodi:docname="favico.svg"
   xml:space="preserve"
   inkscape:version="1.2.2 (732a01da63, 2022-12-09)"
   xmlns:inkscape="http://www.inkscape.org/namespaces/inkscape"
   xmlns:sodipodi="http://sodipodi.sourceforge.net/DTD/sodipodi-0.dtd"
   xmlns="http://www.w3.org/2000/svg"
   xmlns:svg="http://www.w3.org/2000/svg"><sodipodi:namedview
     id="namedview137"
     pagecolor="#ffffff"
     bordercolor="#000000"
     borderopacity="0.25"
     inkscape:showpageshadow="2"
     inkscape:pageopacity="0.0"
     inkscape:pagecheckerboard="0"
     inkscape:deskcolor="#d1d1d1"
     inkscape:document-units="px"
     showgrid="true"
     inkscape:zoom="1.4716891"
     inkscape:cx="148.46886"
     inkscape:cy="147.10987"
     inkscape:window-width="1920"
     inkscape:window-height="1013"
     inkscape:window-x="-9"
     inkscape:window-y="-9"
     inkscape:window-maximized="1"
     inkscape:current-layer="layer1"><inkscape:grid
       type="xygrid"
       id="grid260"
       originx="0"
       originy="0" /></sodipodi:namedview><defs
     id="defs132" /><g
     inkscape:label="Слой 1"
     inkscape:groupmode="layer"
     id="layer1"><path
       style="opacity:1;fill:#008178;fill-opacity:1;stroke-width:0.755907"
       d="m 117.94344,220.63481 h 26.82522 c 2.06348,0 12.38088,0 16.50784,-2.06349 4.12695,-2.06348 14.13491,-4.69981 20.63479,-8.25391 5.1915,-2.83868 10.73434,-5.70811 14.44435,-10.3174 3.28452,-4.08069 5.13718,-9.31301 6.19043,-14.44435 1.24469,-6.06402 0,-18.57132 0,-18.57132 0,0 -2.80866,-19.63938 -6.19043,-28.88871 -4.01529,-10.98202 -16.50783,-30.95219 -16.50783,-30.95219 L 161.2765,82.381695 148.89563,65.873863 144.76866,61.746904 c 0,0 6.19044,-10.317397 10.3174,-14.444354 4.12695,-4.126959 18.57132,-16.507834 18.57132,-16.507834 0,0 -3.82308,-4.484135 -6.19044,-6.190438 -3.74314,-2.697898 -12.38088,-6.190437 -12.38088,-6.190437 l 4.12695,-4.126959 c 0,0 -7.9342,-2.895305 -12.38087,-4.126957 -8.64275,-2.3939031 -17.85765,-4.2296278 -26.82523,-4.1269594 -6.91212,0.079129 -13.8096,0.9678533 -20.634785,2.0634787 -6.261287,1.0051042 -18.571317,4.1269587 -18.571317,4.1269587 l 4.126957,6.190438 c 0,0 -5.693203,0.844654 -8.253916,2.063478 -3.105322,1.478043 -6.050302,3.550038 -8.253916,6.190438 -0.985487,1.180823 -2.063481,4.126959 -2.063481,4.126959 l 30.952184,30.952188 c 0,0 -11.325226,12.110596 -16.507828,18.571313 -9.556248,11.912974 -19.648,23.661973 -26.825231,37.142623 -6.545236,12.29362 -11.431273,25.60851 -14.444354,39.2061 -1.791856,8.08638 -3.629766,16.62868 -2.063478,24.76175 1.745113,9.06166 6.170747,19.23838 12.380875,24.76175 13.490672,11.9988 47.460016,14.44437 49.523505,14.44437 z"
       id="path563"
       sodipodi:nodetypes="cssasscaccccscaccsssccaaccssssssc" /><path
       id="path563-5"
       style="fill:#006b57;fill-opacity:1;stroke-width:0.755907"
       d="m 195.18487,135.28152 c -0.19678,0.2679 -0.39792,0.53465 -0.56221,0.82218 -0.12304,0.21518 0.1108,0.52187 0,0.74357 -0.36965,0.73929 -1.17046,1.43899 -1.48716,2.23074 -0.33837,0.84593 -0.31668,2.1205 -0.74358,2.9743 -0.28246,0.56491 -0.91829,0.89593 -1.11537,1.48716 -0.0783,0.23513 0.0601,0.50311 0,0.74358 -0.28429,1.13718 -0.82206,2.17287 -1.11536,3.3461 -0.10183,0.40701 0.22301,1.15264 0,1.48716 -0.19444,0.29166 -0.54915,0.45192 -0.74358,0.74358 -0.20623,0.30934 0.0902,0.75468 0,1.11536 -0.21968,0.87874 -0.51493,1.68793 -0.74358,2.60252 -0.10941,0.43747 -0.24783,3.16015 -0.3718,3.34611 -0.19444,0.29166 -0.5868,0.43006 -0.74358,0.74358 -0.1108,0.22169 0.0783,0.50845 0,0.74358 -0.24066,0.72206 -0.91118,1.41405 -1.11536,2.23072 -0.06,0.24047 0.17527,0.56831 0,0.74358 -0.27711,0.27707 -0.83825,0.0947 -1.11536,0.3718 -0.17527,0.17526 0,0.49571 0,0.74358 -0.3718,0.24785 -0.74358,0.4957 -1.11536,0.74356 -0.63511,0.63505 -0.50598,1.51793 -0.74358,2.23074 -0.05,0.14997 -1.40111,2.01572 -1.48716,2.23074 -0.60071,1.50174 0.51277,3.66671 0,5.20505 -0.0554,0.16625 -0.30665,0.20905 -0.37178,0.37178 -0.53873,1.34682 -0.97783,2.73147 -1.48716,4.08968 -0.32748,0.8733 0.10059,1.62278 -1.11538,2.23074 -0.35054,0.17527 -0.77932,0.17014 -1.11536,0.37178 -0.93782,0.5627 -1.68326,1.61789 -2.60253,2.23074 -1.14397,0.76265 -2.5739,1.0963 -3.71788,1.85894 -0.10307,0.0687 0.0876,0.28419 0,0.37178 -0.0757,0.0757 -1.61484,0.92009 -1.85894,1.11538 -0.41057,0.32845 -0.7048,0.7869 -1.11538,1.11536 -0.43277,0.34622 -1.09526,0.35168 -1.48716,0.74358 -0.0876,0.0876 0.11081,0.31638 0,0.37179 -0.22169,0.11081 -0.51343,-0.0921 -0.74356,0 -0.93943,0.37577 -1.09498,1.10518 -1.85896,1.48716 -0.45703,0.22849 -1.06199,0.0884 -1.48714,0.37178 -0.73936,0.4929 -1.35732,1.56782 -2.23074,1.85896 -0.47029,0.15675 -0.99818,-0.0816 -1.48716,0 -1.00806,0.168 -2.06024,0.28655 -2.97431,0.74358 -0.31351,0.15677 -0.43006,0.58679 -0.74358,0.74356 -0.7838,0.3919 -1.79705,0.0266 -2.60252,0.3718 -0.82141,0.35203 -0.92663,1.82556 -2.23074,1.48716 -2.2213,0.95198 -4.66332,1.8306 -7.06399,2.23072 -0.36673,0.0611 -0.75079,-0.0729 -1.11536,0 -1.10511,0.22102 -1.73083,0.97718 -2.97432,1.11538 -2.07887,0.23098 -4.24,-0.20805 -6.3204,0 -0.27574,0.0275 -0.48495,0.27227 -0.74358,0.37178 -1.3539,0.52073 -2.70326,1.06056 -4.08968,1.48716 -0.23691,0.0729 -0.49572,0 -0.74358,0 -0.74358,0.24787 -1.48715,0.49572 -2.23074,0.74358 -0.16109,0.069 -0.24782,0.24782 -0.37179,0.37178 -0.61966,0.24787 -1.23929,0.49572 -1.85894,0.74358 -0.7316,0.13294 -1.4929,-0.0922 -2.23074,0 -0.83825,0.10478 -2.70279,1.27273 -3.3461,1.48716 -1.57126,0.52375 -3.22095,1.00346 -4.83325,1.48715 -1.50892,0.45274 -2.30683,0.13665 -3.7179,0.3718 -0.38657,0.0644 -0.74356,0.24781 -1.11536,0.37178 -0.24786,0.12396 -0.47185,0.31747 -0.74358,0.37179 -0.95362,0.19073 -2.01005,-0.13773 -2.97432,0 -1.99832,0.28548 -3.92857,0.51915 -5.948605,0.74358 -5.877712,0.6531 -11.95762,-0.53556 -17.848904,0 -0.872728,0.0794 -1.73501,0.24782 -2.602521,0.37179 -0.371793,0.12396 -0.727401,0.31639 -1.115366,0.37179 -3.29754,0.47107 -7.091018,0 -10.410091,0 -4.541774,0 -9.83473,0.2874 -14.614633,0.16927 14.499844,10.71422 45.659204,12.97936 47.634325,12.97936 h 18.571315 26.82624 c 2.06348,0 12.37987,-0.001 16.50682,-2.06449 4.12695,-2.06346 14.13593,-4.6978 20.63581,-8.2519 5.19149,-2.83867 10.73233,-5.71012 14.44234,-10.31941 3.28452,-4.08068 5.13718,-9.311 6.19043,-14.44234 1.24468,-6.064 0,-18.57131 0,-18.57131 0,0 -2.80866,-19.6414 -6.19043,-28.89073 -0.31513,-0.86188 -0.76036,-1.85549 -1.16978,-2.81411 z" /><path
       style="opacity:1;fill:#006b57;fill-opacity:1;stroke-width:0.755907"
       d="m 97.308636,61.746904 c 2.063489,0 6.190434,2.063479 6.190434,2.063479 L 101.4356,57.619945 93.181688,34.921675 84.927765,18.413841 c 0,0 -5.693203,0.844654 -8.253916,2.063478 -3.105322,1.478043 -5.712816,3.49547 -8.253916,6.190438 -1.492187,1.582541 -2.063481,4.126959 -2.063481,4.126959 0,0 12.380875,12.380875 18.571313,18.571313 4.126957,4.126957 12.380871,12.380875 12.380871,12.380875 z"
       id="path2192"
       sodipodi:nodetypes="cccccsscac" /><path
       style="fill:#006b57;fill-opacity:1;stroke-width:0.755907"
       d="m 144.76866,60.715164 c -2.06349,0 -6.19044,2.063479 -6.19044,2.063479 l 2.06348,-6.190438 8.25391,-22.69827 8.25393,-16.507834 c 0,0 5.6932,0.844654 8.25391,2.063478 3.10532,1.478043 5.71281,3.49547 8.25391,6.190438 1.49219,1.58254 2.06349,4.126959 2.06349,4.126959 0,0 -12.38087,12.380875 -18.57131,18.571313 -4.12697,4.126957 -12.38088,12.380875 -12.38088,12.380875 z"
       id="path2192-5"
       sodipodi:nodetypes="cccccsscac" /><path
       style="opacity:1;fill:#e5ff00;fill-opacity:1;stroke-width:0.755907"
       d="m 97.308636,61.746904 10.317404,2.063479 h 12.38087 c 0,0 12.48779,-0.727313 18.57131,-2.063479 2.12447,-0.466609 4.07353,-2.563213 6.19044,-2.063479 1.89343,0.446976 4.12697,2.18149 4.12697,4.126958 0,1.945469 -4.12697,4.126959 -4.12697,4.126959 0,0 0,2.063478 2.06348,2.063478 2.06349,0 8.03068,4.126959 12.38087,4.126959 2.1751,0 6.19044,-2.063478 6.19044,-2.063478 h 4.12696 c 2.06348,0 4.43859,2.206612 4.12697,4.126957 -0.24637,1.518168 -2.65573,1.615159 -4.12697,2.06348 -2.61125,0.795711 -5.39267,1.039336 -8.12247,1.044754 -2.81673,0.0056 -8.38537,-1.044754 -8.38537,-1.044754 h -4.12694 c 0,0 3.92244,3.123667 6.19043,4.126957 2.59355,1.147307 5.50261,1.375653 8.25392,2.063481 2.7513,0.687825 6.50861,-0.171856 8.25391,2.063478 1.26989,1.626447 1.57447,4.856657 0,6.190438 -3.1924,2.704355 -8.32037,-1.054945 -12.38088,-2.063479 -4.22192,-1.048623 -8.8125,-1.638786 -12.38087,-4.126959 -3.6127,-2.519082 -8.25392,-10.317396 -8.25392,-10.317396 l -4.12696,-6.190438 c 0,0 -12.34864,2.333523 -18.57131,2.063481 -7.00789,-0.304117 -20.634788,-4.126959 -20.634788,-4.126959 0,0 -3.318369,-0.755153 -4.126964,-2.063479 -0.723229,-1.1702 -0.526435,-2.856022 0,-4.126959 0.372262,-0.898689 0,-2.063479 2.06349,-2.063479 2.063474,0 4.126948,2.063479 4.126948,2.063479 z"
       id="path2257"
       sodipodi:nodetypes="cccaascsscsaaaccsassaaccscsasc" /><text
       xml:space="preserve"
       style="font-size:132.063px;font-family:ISOCPEUR;-inkscape-font-specification:ISOCPEUR;opacity:1;fill:#008178;fill-opacity:1;stroke-width:0.755907"
       x="90.215446"
       y="186.84532"
       id="text2695"><tspan
         sodipodi:role="line"
         id="tspan2693"
         x="90.215446"
         y="186.84532"
         style="font-size:132.063px;fill:#ffffff;fill-opacity:1;stroke-width:0.755907">C</tspan></text></g></svg>
