<?xml version="1.0" encoding="UTF-8" standalone="no"?>
<!-- Created with Inkscape (http://www.inkscape.org/) -->

<svg
   width="16.0px"
   height="16.0px"
   viewBox="0 0 16.0 16.0"
   version="1.1"
   id="SVGRoot"
   sodipodi:docname="usa_flag.svg"
   inkscape:version="1.2.2 (732a01da63, 2022-12-09)"
   xmlns:inkscape="http://www.inkscape.org/namespaces/inkscape"
   xmlns:sodipodi="http://sodipodi.sourceforge.net/DTD/sodipodi-0.dtd"
   xmlns="http://www.w3.org/2000/svg"
   xmlns:svg="http://www.w3.org/2000/svg">
  <sodipodi:namedview
     id="namedview261"
     pagecolor="#ffffff"
     bordercolor="#000000"
     borderopacity="0.25"
     inkscape:showpageshadow="2"
     inkscape:pageopacity="0.0"
     inkscape:pagecheckerboard="0"
     inkscape:deskcolor="#d1d1d1"
     inkscape:document-units="px"
     showgrid="true"
     inkscape:zoom="20.48"
     inkscape:cx="2.4169922"
     inkscape:cy="4.3701172"
     inkscape:window-width="1920"
     inkscape:window-height="1013"
     inkscape:window-x="-9"
     inkscape:window-y="-9"
     inkscape:window-maximized="1"
     inkscape:current-layer="layer1">
    <inkscape:grid
       type="xygrid"
       id="grid384" />
  </sodipodi:namedview>
  <defs
     id="defs256" />
  <g
     inkscape:label="Слой 1"
     inkscape:groupmode="layer"
     id="layer1">
    <g
       id="g4041"
       transform="scale(0.42616491)"
       style="stroke-width:2.34651">
      <path
         class="st0"
         d="m 3.03,0 h 49.13 c 1.67,0 3.03,1.36 3.03,3.03 v 32.33 c 0,1.67 -1.36,3.03 -3.03,3.03 H 3.03 C 1.36,38.4 0,37.04 0,35.37 V 3.03 C 0,1.36 1.36,0 3.03,0 Z"
         id="path3963"
         style="fill:#b22234;stroke-width:2.34651" />
      <path
         class="st1"
         d="m 0.02,2.73 h 55.17 c 0.01,0.1 0.02,0.2 0.02,0.31 V 5.98 H 0 V 3.03 C 0,2.93 0.01,2.83 0.02,2.73 Z M 55.2,8.67 v 3.24 H 0 V 8.67 Z m 0,5.94 v 3.24 H 0 v -3.24 z m 0,5.94 v 3.24 H 0 v -3.24 z m 0,5.94 v 3.24 H 0 v -3.24 z m 0,5.94 v 2.93 c 0,0.1 -0.01,0.21 -0.02,0.31 H 0.02 C 0.01,35.58 0,35.47 0,35.37 v -2.93 h 55.2 z"
         id="path3965"
         style="fill:#ffffff;stroke-width:2.34651" />
      <path
         class="st2"
         d="M 20.8,0 V 20.68 H 0 V 3.03 C 0,1.36 1.36,0 3.03,0 Z"
         id="path3967"
         style="fill:#3c3b6e;stroke-width:2.34651" />
      <polygon
         class="st1"
         points="0.53,5.01 1.23,2.86 1.92,5.01 0.1,3.68 2.36,3.68 "
         id="polygon3969"
         style="fill:#ffffff;stroke-width:2.34651" />
      <polygon
         class="st1"
         points="0.53,9.17 1.23,7.02 1.92,9.17 0.1,7.84 2.36,7.84 "
         id="polygon3971"
         style="fill:#ffffff;stroke-width:2.34651" />
      <polygon
         class="st1"
         points="0.53,13.33 1.23,11.18 1.92,13.33 0.1,12 2.36,12 "
         id="polygon3973"
         style="fill:#ffffff;stroke-width:2.34651" />
      <polygon
         class="st1"
         points="0.53,17.49 1.23,15.34 1.92,17.49 0.1,16.16 2.36,16.16 "
         id="polygon3975"
         style="fill:#ffffff;stroke-width:2.34651" />
      <polygon
         class="st1"
         points="2.97,2.93 3.67,0.78 4.37,2.93 2.54,1.6 4.81,1.6 "
         id="polygon3977"
         style="fill:#ffffff;stroke-width:2.34651" />
      <polygon
         class="st1"
         points="2.97,7.09 3.67,4.94 4.37,7.09 2.54,5.76 4.81,5.76 "
         id="polygon3979"
         style="fill:#ffffff;stroke-width:2.34651" />
      <polygon
         class="st1"
         points="2.97,11.25 3.67,9.1 4.37,11.25 2.54,9.92 4.81,9.92 "
         id="polygon3981"
         style="fill:#ffffff;stroke-width:2.34651" />
      <polygon
         class="st1"
         points="2.97,15.41 3.67,13.26 4.37,15.41 2.54,14.08 4.81,14.08 "
         id="polygon3983"
         style="fill:#ffffff;stroke-width:2.34651" />
      <polygon
         class="st1"
         points="2.97,19.57 3.67,17.42 4.37,19.57 2.54,18.24 4.81,18.24 "
         id="polygon3985"
         style="fill:#ffffff;stroke-width:2.34651" />
      <polygon
         class="st1"
         points="5.42,5.01 6.12,2.86 6.82,5.01 4.99,3.68 7.25,3.68 "
         id="polygon3987"
         style="fill:#ffffff;stroke-width:2.34651" />
      <polygon
         class="st1"
         points="5.42,9.17 6.12,7.02 6.82,9.17 4.99,7.84 7.25,7.84 "
         id="polygon3989"
         style="fill:#ffffff;stroke-width:2.34651" />
      <polygon
         class="st1"
         points="5.42,13.33 6.12,11.18 6.82,13.33 4.99,12 7.25,12 "
         id="polygon3991"
         style="fill:#ffffff;stroke-width:2.34651" />
      <polygon
         class="st1"
         points="5.42,17.49 6.12,15.34 6.82,17.49 4.99,16.16 7.25,16.16 "
         id="polygon3993"
         style="fill:#ffffff;stroke-width:2.34651" />
      <polygon
         class="st1"
         points="7.87,2.93 8.57,0.78 9.26,2.93 7.44,1.6 9.7,1.6 "
         id="polygon3995"
         style="fill:#ffffff;stroke-width:2.34651" />
      <polygon
         class="st1"
         points="7.87,7.09 8.57,4.94 9.26,7.09 7.44,5.76 9.7,5.76 "
         id="polygon3997"
         style="fill:#ffffff;stroke-width:2.34651" />
      <polygon
         class="st1"
         points="7.87,11.25 8.57,9.1 9.26,11.25 7.44,9.92 9.7,9.92 "
         id="polygon3999"
         style="fill:#ffffff;stroke-width:2.34651" />
      <polygon
         class="st1"
         points="7.87,15.41 8.57,13.26 9.26,15.41 7.44,14.08 9.7,14.08 "
         id="polygon4001"
         style="fill:#ffffff;stroke-width:2.34651" />
      <polygon
         class="st1"
         points="7.87,19.57 8.57,17.42 9.26,19.57 7.44,18.24 9.7,18.24 "
         id="polygon4003"
         style="fill:#ffffff;stroke-width:2.34651" />
      <polygon
         class="st1"
         points="10.31,5.01 11.01,2.86 11.71,5.01 9.88,3.68 12.14,3.68 "
         id="polygon4005"
         style="fill:#ffffff;stroke-width:2.34651" />
      <polygon
         class="st1"
         points="10.31,9.17 11.01,7.02 11.71,9.17 9.88,7.84 12.14,7.84 "
         id="polygon4007"
         style="fill:#ffffff;stroke-width:2.34651" />
      <polygon
         class="st1"
         points="10.31,13.33 11.01,11.18 11.71,13.33 9.88,12 12.14,12 "
         id="polygon4009"
         style="fill:#ffffff;stroke-width:2.34651" />
      <polygon
         class="st1"
         points="10.31,17.49 11.01,15.34 11.71,17.49 9.88,16.16 12.14,16.16 "
         id="polygon4011"
         style="fill:#ffffff;stroke-width:2.34651" />
      <polygon
         class="st1"
         points="12.76,2.93 13.46,0.78 14.16,2.93 12.33,1.6 14.59,1.6 "
         id="polygon4013"
         style="fill:#ffffff;stroke-width:2.34651" />
      <polygon
         class="st1"
         points="12.76,7.09 13.46,4.94 14.16,7.09 12.33,5.76 14.59,5.76 "
         id="polygon4015"
         style="fill:#ffffff;stroke-width:2.34651" />
      <polygon
         class="st1"
         points="12.76,11.25 13.46,9.1 14.16,11.25 12.33,9.92 14.59,9.92 "
         id="polygon4017"
         style="fill:#ffffff;stroke-width:2.34651" />
      <polygon
         class="st1"
         points="12.76,15.41 13.46,13.26 14.16,15.41 12.33,14.08 14.59,14.08 "
         id="polygon4019"
         style="fill:#ffffff;stroke-width:2.34651" />
      <polygon
         class="st1"
         points="12.76,19.57 13.46,17.42 14.16,19.57 12.33,18.24 14.59,18.24 "
         id="polygon4021"
         style="fill:#ffffff;stroke-width:2.34651" />
      <polygon
         class="st1"
         points="15.21,5.01 15.9,2.86 16.6,5.01 14.77,3.68 17.03,3.68 "
         id="polygon4023"
         style="fill:#ffffff;stroke-width:2.34651" />
      <polygon
         class="st1"
         points="15.21,9.17 15.9,7.02 16.6,9.17 14.77,7.84 17.03,7.84 "
         id="polygon4025"
         style="fill:#ffffff;stroke-width:2.34651" />
      <polygon
         class="st1"
         points="15.21,13.33 15.9,11.18 16.6,13.33 14.77,12 17.03,12 "
         id="polygon4027"
         style="fill:#ffffff;stroke-width:2.34651" />
      <polygon
         class="st1"
         points="15.21,17.49 15.9,15.34 16.6,17.49 14.77,16.16 17.03,16.16 "
         id="polygon4029"
         style="fill:#ffffff;stroke-width:2.34651" />
      <polygon
         class="st1"
         points="17.65,2.93 18.35,0.78 19.05,2.93 17.22,1.6 19.48,1.6 "
         id="polygon4031"
         style="fill:#ffffff;stroke-width:2.34651" />
      <polygon
         class="st1"
         points="17.65,7.09 18.35,4.94 19.05,7.09 17.22,5.76 19.48,5.76 "
         id="polygon4033"
         style="fill:#ffffff;stroke-width:2.34651" />
      <polygon
         class="st1"
         points="17.65,11.25 18.35,9.1 19.05,11.25 17.22,9.92 19.48,9.92 "
         id="polygon4035"
         style="fill:#ffffff;stroke-width:2.34651" />
      <polygon
         class="st1"
         points="17.65,15.41 18.35,13.26 19.05,15.41 17.22,14.08 19.48,14.08 "
         id="polygon4037"
         style="fill:#ffffff;stroke-width:2.34651" />
      <polygon
         class="st1"
         points="17.65,19.57 18.35,17.42 19.05,19.57 17.22,18.24 19.48,18.24 "
         id="polygon4039"
         style="fill:#ffffff;stroke-width:2.34651" />
    </g>
  </g>
</svg>
